<?xml version="1.0" encoding="UTF-8"?>
<svg width="163px" height="19px" viewBox="0 0 163 19" version="1.1" xmlns="http://www.w3.org/2000/svg" xmlns:xlink="http://www.w3.org/1999/xlink">
    <!-- Generator: Sketch 43.1 (39012) - http://www.bohemiancoding.com/sketch -->
    <title>Group</title>
    <desc>Created with Sketch.</desc>
    <defs></defs>
    <g id="Page-1" stroke="none" stroke-width="1" fill="none" fill-rule="evenodd">
        <g id="Group">
            <path d="M0.1927875,18 L0.1927875,1.921875 L7.5521625,1.921875 C8.81779383,1.921875 9.89981426,2.31835541 10.7982562,3.11132812 C11.6966982,3.90430084 12.1459125,4.88280668 12.1459125,6.046875 C12.1459125,6.71875336 11.9720861,7.35155953 11.6244281,7.9453125 C11.2767701,8.53906547 10.7865407,9.00390457 10.153725,9.33984375 C11.0052918,9.66015785 11.6810662,10.1796839 12.1810687,10.8984375 C12.6810712,11.6171911 12.9310687,12.449214 12.9310687,13.3945312 C12.9310687,14.753913 12.43498,15.8613238 11.4427875,16.7167969 C10.450595,17.5722699 9.16154543,18 7.5756,18 L0.1927875,18 Z" id="Path" fill="#161F6A"></path>
            <path d="M4.2006,8.15625 L6.54435,8.15625 C7.0052898,8.15625 7.397864,7.99609535 7.72208437,7.67578125 C8.04630475,7.35546715 8.2084125,6.9804709 8.2084125,6.55078125 C8.2084125,6.10546652 8.04435164,5.73437648 7.716225,5.4375 C7.38809836,5.14062352 6.98185242,4.9921875 6.497475,4.9921875 L4.2006,4.9921875 L4.2006,8.15625 Z" id="Path" fill="#FFFFFF"></path>
            <path d="M4.2006,14.9296875 L6.93106875,14.9296875 C7.49357156,14.9296875 7.9701293,14.7421894 8.36075625,14.3671875 C8.7513832,13.9921856 8.94669375,13.5390652 8.94669375,13.0078125 C8.94669375,12.4453097 8.7513832,11.9726582 8.36075625,11.5898438 C7.9701293,11.2070293 7.48575914,11.015625 6.90763125,11.015625 L4.2006,11.015625 L4.2006,14.9296875 Z" id="Path" fill="#FFFFFF"></path>
            <path d="M26.341225,16.4765625 C25.0052808,17.7031311 23.4095937,18.3164062 21.5541156,18.3164062 C19.6986376,18.3164062 18.1029504,17.7031311 16.7670062,16.4765625 C15.4310621,15.2499939 14.7631,13.7734461 14.7631,12.046875 C14.7631,10.3203039 15.4310621,8.84180303 16.7670062,7.61132812 C18.1029504,6.38085322 19.6986376,5.765625 21.5541156,5.765625 C23.4095937,5.765625 25.0052808,6.38085322 26.341225,7.61132812 C27.6771692,8.84180303 28.3451312,10.3203039 28.3451312,12.046875 C28.3451312,13.7734461 27.6771692,15.2499939 26.341225,16.4765625 Z" id="Path" fill="#161F6A"></path>
            <path d="M19.591225,14.0039062 C20.1459153,14.5585965 20.7982525,14.8359375 21.5482562,14.8359375 C22.29826,14.8359375 22.9545034,14.5585965 23.5170062,14.0039062 C24.0795091,13.449216 24.3607562,12.7968788 24.3607562,12.046875 C24.3607562,11.2968712 24.0795091,10.6464871 23.5170062,10.0957031 C22.9545034,9.54491912 22.29826,9.26953125 21.5482562,9.26953125 C20.7982525,9.26953125 20.1478684,9.54491912 19.5970844,10.0957031 C19.0463004,10.6464871 18.7709125,11.2968712 18.7709125,12.046875 C18.7709125,12.7968788 19.0443473,13.449216 19.591225,14.0039062 Z" id="Path" fill="#FFFFFF"></path>
            <path d="M39.247475,9.234375 L35.5677875,9.234375 L35.5677875,13.0546875 C35.5677875,13.6640655 35.743567,14.1445295 36.0951312,14.4960937 C36.4466955,14.847658 36.9271595,15.0234375 37.5365375,15.0234375 C37.8881018,15.0234375 38.4584086,14.902345 39.247475,14.6601562 L39.247475,17.859375 C38.755285,18.1796891 37.9701366,18.3398438 36.8920062,18.3398438 C35.3060608,18.3398438 34.0248236,17.8750046 33.0482562,16.9453125 C32.0716889,16.0156204 31.5834125,14.8398509 31.5834125,13.4179687 L31.5834125,9.234375 L29.6146625,9.234375 L29.6146625,6.09375 L31.5834125,6.09375 L31.5834125,3.1640625 L35.5677875,3.1640625 L35.5677875,6.09375 L39.247475,6.09375 L39.247475,9.234375 Z" id="Path" fill="#161F6A"></path>
            <path d="M50.0795062,9.234375 L46.3998187,9.234375 L46.3998187,13.0546875 C46.3998187,13.6640655 46.5755982,14.1445295 46.9271625,14.4960937 C47.2787268,14.847658 47.7591907,15.0234375 48.3685687,15.0234375 C48.720133,15.0234375 49.2904398,14.902345 50.0795062,14.6601562 L50.0795062,17.859375 C49.5873163,18.1796891 48.8021679,18.3398438 47.7240375,18.3398438 C46.1380921,18.3398438 44.8568549,17.8750046 43.8802875,16.9453125 C42.9037201,16.0156204 42.4154437,14.8398509 42.4154437,13.4179687 L42.4154437,9.234375 L40.4466937,9.234375 L40.4466937,6.09375 L42.4154437,6.09375 L42.4154437,3.1640625 L46.3998187,3.1640625 L46.3998187,6.09375 L50.0795062,6.09375 L50.0795062,9.234375 Z" id="Path" fill="#161F6A"></path>
            <polygon id="Path" fill="#161F6A" points="52.6966937 18 52.6966937 0.71484375 56.6810687 0.71484375 56.6810687 18"></polygon>
            <path d="M66.2357562,15.2109375 C67.4857625,15.2109375 68.3021606,14.8281288 68.684975,14.0625 L72.3881,14.6132812 C71.9896605,15.6835991 71.2123245,16.5722621 70.0560687,17.2792969 C68.899813,17.9863317 67.6107634,18.3398438 66.1888812,18.3398438 C64.3138719,18.3398438 62.7103723,17.7441466 61.3783344,16.5527344 C60.0462965,15.3613222 59.3802875,13.8750089 59.3802875,12.09375 C59.3802875,10.3359287 60.0306716,8.84180303 61.3314594,7.61132812 C62.6322471,6.38085322 64.2357467,5.765625 66.1420062,5.765625 C68.1576413,5.765625 69.7728596,6.46483676 70.9877094,7.86328125 C72.2025592,9.26172574 72.809975,11.0156145 72.809975,13.125 L63.3060687,13.125 C63.7045082,14.515632 64.681061,15.2109375 66.2357562,15.2109375 Z" id="Path" fill="#161F6A"></path>
            <path d="M66.1420062,8.8359375 C64.6576238,8.8359375 63.7123208,9.48436852 63.3060687,10.78125 L68.8607562,10.78125 C68.4857544,9.48436852 67.5795134,8.8359375 66.1420062,8.8359375 Z" id="Path" fill="#FFFFFF"></path>
            <polygon id="Path" fill="#008D71" points="75.5326312 18 75.5326312 1.921875 77.7123187 1.921875 84.8138812 10.1484375 91.8920062 1.921875 94.10685 1.921875 94.10685 18 90.122475 18 90.122475 9.45703125 85.4935687 14.9296875 84.1459125 14.9296875 79.5170062 9.45703125 79.5170062 18"></polygon>
            <path d="M103.040444,18.3164062 C101.485748,18.3164062 100.081466,17.7246153 98.8275531,16.5410156 C97.5736406,15.357416 96.9466937,13.8593841 96.9466937,12.046875 C96.9466937,10.2265534 97.5736406,8.72461529 98.8275531,7.54101562 C100.081466,6.35741596 101.485748,5.765625 103.040444,5.765625 C103.806073,5.765625 104.548253,5.92773275 105.267006,6.25195312 C105.98576,6.5761735 106.497473,7.01171602 106.802162,7.55859375 L106.849037,7.55859375 L107.024819,6.09375 L110.552162,6.09375 L110.552162,18 L107.024819,18 L106.849037,16.5351562 L106.802162,16.5351562 C106.497473,17.1132841 105.981854,17.554686 105.255287,17.859375 C104.528721,18.164064 103.790447,18.3164062 103.040444,18.3164062 Z" id="Path" fill="#008D71"></path>
            <path d="M101.7631,14.015625 C102.309978,14.5625027 102.966221,14.8359375 103.73185,14.8359375 C104.497479,14.8359375 105.153722,14.5625027 105.7006,14.015625 C106.247478,13.4687473 106.520912,12.8125038 106.520912,12.046875 C106.520912,11.2812462 106.247478,10.6269558 105.7006,10.0839844 C105.153722,9.54101291 104.497479,9.26953125 103.73185,9.26953125 C102.966221,9.26953125 102.311931,9.54101291 101.768959,10.0839844 C101.225988,10.6269558 100.954506,11.2812462 100.954506,12.046875 C100.954506,12.8125038 101.224035,13.4687473 101.7631,14.015625 Z" id="Path" fill="#FFFFFF"></path>
            <path d="M114.083412,18 L114.083412,6.09375 L117.587319,6.09375 L117.833412,8.40234375 L117.880287,8.40234375 C118.231852,7.55077699 118.767003,6.92187703 119.485756,6.515625 C120.20451,6.10937297 120.989658,5.89843758 121.841225,5.8828125 L121.841225,9.43359375 C120.606844,9.43359375 119.669353,9.75390305 119.028725,10.3945312 C118.388097,11.0351595 118.067787,11.9140569 118.067787,13.03125 L118.067787,18 L114.083412,18 Z" id="Path" fill="#008D71"></path>
            <polygon id="Path" fill="#008D71" points="124.306069 18 124.306069 0.71484375 128.290444 0.71484375 128.290444 10.5585938 128.360756 10.5585938 132.204506 6.09375 137.126381 6.09375 132.227944 11.5664062 137.337319 18 132.321694 18 128.360756 12.5742188 128.290444 12.5742188 128.290444 18"></polygon>
            <path d="M144.688881,15.2109375 C145.938888,15.2109375 146.755286,14.8281288 147.1381,14.0625 L150.841225,14.6132812 C150.442786,15.6835991 149.66545,16.5722621 148.509194,17.2792969 C147.352938,17.9863317 146.063888,18.3398438 144.642006,18.3398438 C142.766997,18.3398438 141.163497,17.7441466 139.831459,16.5527344 C138.499421,15.3613222 137.833413,13.8750089 137.833413,12.09375 C137.833413,10.3359287 138.483797,8.84180303 139.784584,7.61132812 C141.085372,6.38085322 142.688872,5.765625 144.595131,5.765625 C146.610766,5.765625 148.225985,6.46483676 149.440834,7.86328125 C150.655684,9.26172574 151.2631,11.0156145 151.2631,13.125 L141.759194,13.125 C142.157633,14.515632 143.134186,15.2109375 144.688881,15.2109375 Z" id="Path" fill="#008D71"></path>
            <path d="M144.595131,8.8359375 C143.110749,8.8359375 142.165446,9.48436852 141.759194,10.78125 L147.313881,10.78125 C146.938879,9.48436852 146.032638,8.8359375 144.595131,8.8359375 Z" id="Path" fill="#FFFFFF"></path>
            <path d="M162.048256,9.234375 L158.368569,9.234375 L158.368569,13.0546875 C158.368569,13.6640655 158.544348,14.1445295 158.895913,14.4960937 C159.247477,14.847658 159.727941,15.0234375 160.337319,15.0234375 C160.688883,15.0234375 161.25919,14.902345 162.048256,14.6601562 L162.048256,17.859375 C161.556066,18.1796891 160.770918,18.3398438 159.692788,18.3398438 C158.106842,18.3398438 156.825605,17.8750046 155.849038,16.9453125 C154.87247,16.0156204 154.384194,14.8398509 154.384194,13.4179687 L154.384194,9.234375 L152.415444,9.234375 L152.415444,6.09375 L154.384194,6.09375 L154.384194,3.1640625 L158.368569,3.1640625 L158.368569,6.09375 L162.048256,6.09375 L162.048256,9.234375 Z" id="Path" fill="#008D71"></path>
        </g>
    </g>
</svg>